<?xml version="1.0" encoding="UTF-8" ?>
<!DOCTYPE svg PUBLIC "-//W3C//DTD SVG 1.1//EN" "http://www.w3.org/Graphics/SVG/1.1/DTD/svg11.dtd">
<svg width="1006pt" height="994pt" viewBox="0 0 1006 994" version="1.1" xmlns="http://www.w3.org/2000/svg">
<path fill="#ffffff" d=" M 0.00 0.00 L 1006.00 0.00 L 1006.00 994.00 L 0.00 994.00 L 0.00 0.00 Z" />
<path fill="#0461a6" d=" M 477.59 44.03 C 525.57 41.08 574.05 45.53 620.56 57.81 C 698.62 78.14 770.74 120.17 827.36 177.56 C 876.17 227.08 913.51 287.92 934.99 354.08 C 955.64 417.27 962.06 485.03 953.79 550.98 C 942.96 639.16 904.95 723.65 846.54 790.55 C 797.21 847.41 733.45 891.70 662.79 917.73 C 610.90 936.99 555.40 946.46 500.06 945.65 C 432.67 945.08 365.47 928.83 305.17 898.74 C 238.19 865.53 179.74 815.36 136.74 754.22 C 111.45 718.38 91.40 678.83 77.62 637.19 C 45.72 541.86 46.85 435.82 81.18 341.30 C 105.64 273.43 146.72 211.65 199.77 162.78 C 254.16 112.40 321.17 75.75 393.01 57.40 C 420.69 50.25 449.06 45.80 477.59 44.03 Z" />
<path fill="#ffffff" d=" M 443.83 114.64 C 456.64 109.49 470.92 108.41 484.46 110.86 C 484.68 117.72 484.92 124.57 485.26 131.42 C 476.28 129.74 466.91 130.07 458.09 132.47 C 453.91 133.58 449.81 135.66 447.13 139.15 C 444.56 142.55 443.59 146.87 443.37 151.05 C 442.96 158.77 444.19 166.46 445.68 174.01 C 447.08 180.30 448.93 186.81 453.26 191.76 C 456.67 195.59 461.91 197.22 466.92 197.32 C 476.57 197.28 486.00 194.36 494.44 189.78 C 496.26 195.90 497.97 202.07 499.72 208.22 C 487.49 216.24 472.46 219.76 457.93 218.38 C 450.01 217.45 442.13 214.36 436.38 208.69 C 427.39 200.22 423.29 188.02 420.84 176.21 C 418.19 162.51 416.97 147.63 422.70 134.52 C 426.58 125.29 434.66 118.34 443.83 114.64 Z" />
<path fill="#ffffff" d=" M 522.40 109.72 C 530.36 110.62 538.37 110.87 546.34 111.63 C 543.63 146.37 541.32 181.14 538.62 215.89 C 530.59 215.44 522.57 214.79 514.55 214.22 C 517.36 179.40 519.45 144.53 522.40 109.72 Z" />
<path fill="#ffffff" d=" M 591.96 117.19 C 598.50 118.99 604.85 121.42 611.23 123.73 C 618.14 148.43 624.72 173.23 631.83 197.85 C 637.75 177.65 645.50 158.04 652.05 138.04 C 658.77 139.92 665.29 142.48 671.90 144.76 C 660.45 177.73 649.17 210.77 637.45 243.64 C 632.31 241.73 627.08 240.08 621.93 238.21 C 614.35 212.13 606.62 186.10 599.20 159.98 C 592.63 181.06 584.64 201.68 577.86 222.69 C 571.12 220.87 564.68 218.14 558.03 216.07 C 561.85 202.96 566.86 190.21 571.19 177.26 C 578.07 157.22 585.21 137.27 591.96 117.19 Z" />
<path fill="#ffffff" d=" M 310.36 161.04 C 331.26 151.34 351.94 141.13 372.87 131.48 C 375.87 137.75 379.17 143.88 382.05 150.21 C 368.35 156.67 354.70 163.27 340.97 169.69 C 343.27 175.68 346.26 181.36 349.03 187.13 C 349.57 188.68 351.24 187.51 352.23 187.21 C 363.01 182.18 373.63 176.77 384.54 172.01 C 387.24 177.62 390.00 183.21 392.52 188.91 C 380.98 194.35 369.51 199.94 357.92 205.29 C 360.82 212.64 364.58 219.64 367.89 226.83 C 382.37 219.99 396.78 213.00 411.29 206.23 C 414.13 212.50 416.98 218.76 419.64 225.10 C 398.26 235.30 376.81 245.34 355.51 255.70 C 340.20 224.28 325.36 192.62 310.36 161.04 Z" />
<path fill="#ffffff" d=" M 702.59 183.65 C 711.16 177.88 722.62 178.16 731.78 182.37 C 745.01 188.59 755.95 199.28 763.52 211.70 C 758.79 215.93 754.61 220.77 749.74 224.83 C 747.57 225.10 746.69 221.97 745.29 220.68 C 739.96 213.74 733.65 207.36 725.97 203.04 C 722.26 200.88 716.86 200.08 713.64 203.52 C 710.23 206.50 710.76 211.64 712.77 215.27 C 718.26 225.86 727.11 234.93 729.55 246.94 C 731.14 253.68 729.45 260.90 725.65 266.62 C 720.27 275.00 711.33 281.72 701.11 282.21 C 689.01 282.97 677.86 276.56 669.03 268.88 C 661.95 262.53 655.58 254.96 652.05 246.06 C 656.66 241.10 661.60 236.41 666.67 231.91 C 672.16 243.33 680.39 254.22 692.12 259.70 C 697.69 262.66 705.16 259.18 706.43 253.06 C 706.86 248.31 704.08 244.08 701.77 240.15 C 695.86 230.79 688.64 221.42 687.73 209.97 C 687.14 199.27 693.89 189.34 702.59 183.65 Z" />
<path fill="#ffffff" d=" M 269.65 200.04 C 281.82 198.82 293.15 205.32 302.00 213.07 C 311.67 221.84 320.85 231.68 326.24 243.73 C 329.78 251.52 330.77 260.58 328.22 268.82 C 325.59 277.05 320.28 284.17 314.11 290.12 C 304.12 299.78 293.89 309.19 283.82 318.77 C 259.90 293.34 235.72 268.13 212.07 242.47 C 219.88 235.13 227.64 227.74 235.47 220.43 C 244.94 211.10 255.83 201.41 269.65 200.04 Z" />
<path fill="#0461a6" d=" M 260.04 227.03 C 263.99 224.11 269.27 222.38 274.06 224.25 C 281.32 226.83 286.80 232.57 292.07 237.97 C 296.63 242.85 301.19 247.91 304.20 253.93 C 306.03 257.59 307.19 261.95 305.65 265.92 C 303.26 272.53 297.32 276.74 292.54 281.53 C 290.46 283.16 288.92 285.81 286.47 286.76 C 272.03 272.05 258.14 256.79 243.90 241.88 C 249.16 236.82 254.15 231.38 260.04 227.03 Z" />
<path fill="#ffffff" d=" M 386.84 307.67 C 421.95 285.28 463.35 272.95 504.98 272.44 C 545.36 271.71 585.89 282.01 620.95 302.08 C 651.34 319.37 677.72 343.77 697.16 372.84 C 700.32 377.20 696.23 383.78 691.00 383.29 C 687.14 383.12 685.19 379.50 683.26 376.70 C 662.51 347.14 634.09 323.04 601.59 307.31 C 562.61 288.27 517.74 281.90 474.94 288.67 C 430.30 295.57 388.25 317.38 356.55 349.51 C 323.22 383.10 301.53 427.99 296.23 475.04 C 291.22 517.82 299.48 562.10 319.86 600.07 C 337.34 632.95 363.62 661.08 395.17 680.84 C 429.32 702.38 469.73 713.76 510.10 713.38 C 548.86 713.29 587.90 703.45 620.95 682.93 C 655.60 661.57 683.14 629.49 700.60 592.85 C 711.89 569.91 717.34 544.80 724.75 520.49 C 713.91 518.90 702.97 517.42 691.99 517.75 C 687.51 518.16 682.18 518.37 679.31 522.40 C 665.79 538.28 648.46 551.89 627.91 556.99 C 617.15 559.96 605.92 559.32 594.92 560.27 C 587.55 560.61 580.18 560.92 572.82 561.43 C 579.37 578.46 584.20 596.61 583.12 615.00 C 582.30 628.28 577.86 641.75 568.54 651.51 C 561.11 659.62 551.02 664.82 540.57 667.87 C 533.64 670.12 526.25 669.31 519.10 670.06 C 496.46 671.24 473.85 672.76 451.21 673.81 C 454.84 659.53 457.44 644.80 456.65 630.01 C 455.61 609.83 454.56 589.65 453.45 569.46 C 436.97 570.20 420.51 571.38 404.02 571.87 C 383.28 572.41 362.98 559.46 354.65 540.47 C 347.52 525.71 349.38 508.90 347.85 493.05 C 347.16 475.38 345.78 457.73 345.27 440.05 C 356.30 448.29 370.32 452.08 384.00 451.54 C 405.20 450.38 426.39 449.16 447.60 448.23 C 446.78 426.83 445.32 405.46 444.39 384.06 C 443.86 376.31 444.12 368.30 441.24 360.94 C 438.80 353.92 434.73 347.62 430.23 341.75 C 460.50 340.10 490.75 338.15 521.02 336.72 C 531.15 336.26 541.47 339.23 549.45 345.56 C 561.17 355.00 567.75 369.53 570.22 384.11 C 571.28 398.41 571.77 412.74 572.64 427.05 C 573.21 432.18 572.14 437.39 569.19 441.67 C 574.85 441.83 580.68 440.62 585.43 437.41 C 596.92 429.42 610.11 423.65 624.02 421.67 C 634.82 420.47 645.99 421.08 656.24 424.95 C 672.61 430.77 686.44 443.40 693.72 459.18 C 697.83 467.73 699.36 477.28 699.38 486.71 C 710.77 491.48 721.76 498.77 728.09 509.65 C 734.42 489.48 741.32 469.08 753.26 451.44 C 765.99 432.54 786.17 419.35 808.06 413.63 C 812.74 413.11 816.86 418.62 814.82 422.93 C 813.74 426.37 809.89 427.15 806.93 428.21 C 792.92 432.91 779.64 440.62 770.06 452.04 C 758.04 466.17 751.15 483.71 745.20 501.04 C 738.41 521.33 732.80 541.99 726.78 562.51 C 715.26 601.90 693.60 638.41 663.96 666.86 C 637.37 692.34 604.15 710.82 568.41 719.73 C 527.39 729.99 483.50 729.59 442.92 717.41 C 405.07 706.06 370.36 684.55 343.26 655.80 C 320.24 631.47 302.65 602.01 292.33 570.14 C 276.59 521.98 277.57 468.52 295.20 421.00 C 312.21 374.53 345.03 334.11 386.84 307.67 Z" />
<path fill="#ffffff" d=" M 148.29 296.14 C 153.39 288.50 157.83 280.43 163.05 272.86 C 164.15 279.89 165.32 286.90 166.47 293.92 C 166.71 295.96 167.37 298.25 166.04 300.07 C 163.40 304.41 160.58 308.66 157.98 313.03 C 154.65 307.46 151.43 301.82 148.29 296.14 Z" />
<path fill="#ffffff" d=" M 149.89 337.02 C 161.77 317.31 174.19 297.93 186.17 278.29 C 192.27 281.66 198.25 285.26 204.19 288.92 C 196.31 302.02 188.00 314.86 180.13 327.96 C 185.95 331.43 191.70 335.02 197.39 338.71 C 204.52 328.01 211.04 316.91 217.87 306.01 C 223.35 309.07 228.55 312.59 233.93 315.80 C 227.42 326.95 220.06 337.60 213.77 348.87 C 220.56 352.74 226.97 357.26 233.83 361.03 C 242.19 347.44 250.66 333.92 259.05 320.35 C 264.82 323.92 270.35 327.88 276.14 331.42 C 274.54 335.19 272.04 338.46 269.95 341.96 C 259.65 358.70 249.14 375.32 238.91 392.11 C 209.07 374.03 179.57 355.37 149.89 337.02 Z" />
<path fill="#ffffff" d=" M 807.01 350.93 C 813.04 335.82 826.08 324.66 840.18 317.22 C 844.72 330.05 846.34 344.20 843.27 357.55 C 839.77 372.36 828.90 384.28 816.50 392.51 C 813.76 394.28 811.06 396.26 807.84 397.06 C 803.12 382.26 801.36 365.73 807.01 350.93 Z" />
<path fill="#ffffff" d=" M 750.82 372.02 C 751.55 354.92 761.44 339.74 773.29 328.02 C 781.04 338.01 785.97 350.29 787.43 362.85 C 789.54 382.41 778.84 400.94 764.97 413.89 C 756.35 401.74 750.42 387.10 750.82 372.02 Z" />
<path fill="#ffffff" d=" M 859.97 378.97 C 875.54 370.43 894.59 371.25 911.08 376.57 C 904.32 390.72 893.60 403.71 879.12 410.35 C 864.22 416.72 847.21 415.46 831.97 410.98 C 837.83 397.90 847.45 386.15 859.97 378.97 Z" />
<path fill="#ffffff" d=" M 130.84 392.21 C 165.44 396.28 199.97 401.14 234.60 404.96 C 234.20 412.20 232.82 419.34 232.18 426.56 C 210.65 424.05 189.16 421.28 167.68 418.41 C 188.26 429.22 208.51 440.63 228.88 451.82 C 228.31 456.98 227.56 462.13 227.08 467.31 C 204.66 473.06 182.34 479.29 159.74 484.30 C 181.03 487.35 202.44 489.60 223.75 492.51 C 223.06 499.36 222.07 506.18 221.24 513.03 C 186.58 509.12 152.01 504.40 117.39 500.19 C 118.36 491.59 119.57 483.01 120.51 474.41 C 145.44 467.89 170.36 461.34 195.37 455.12 C 172.54 443.22 150.25 430.30 127.61 418.04 C 128.73 409.43 129.86 400.83 130.84 392.21 Z" />
<path fill="#ffffff" d=" M 823.98 436.82 C 838.84 433.37 855.05 433.37 869.08 439.90 C 881.03 445.65 889.99 456.20 896.17 467.72 C 897.84 470.67 899.29 473.76 900.17 477.06 C 883.92 480.61 865.87 480.44 851.20 471.76 C 838.36 463.84 829.12 450.84 823.98 436.82 Z" />
<path fill="#ffffff" d=" M 786.13 452.46 C 803.53 454.27 821.62 461.16 832.41 475.56 C 840.65 487.03 844.99 501.39 844.78 515.47 C 828.18 513.37 810.99 507.27 800.06 493.98 C 790.77 482.33 786.44 467.22 786.13 452.46 Z" />
<path fill="#0461a6" d=" M 655.41 464.58 C 661.38 462.53 668.40 467.63 667.83 474.01 C 668.22 481.50 658.17 486.35 652.50 481.42 C 646.26 477.22 648.13 466.48 655.41 464.58 Z" />
<path fill="#ffffff" d=" M 745.12 655.62 C 755.61 635.09 766.22 614.62 776.88 594.17 C 783.17 597.25 789.53 600.21 795.68 603.57 C 788.40 616.94 781.72 630.62 774.57 644.06 C 780.62 647.33 786.77 650.42 792.91 653.53 C 798.89 642.14 804.58 630.59 810.72 619.28 C 816.20 622.27 821.84 624.97 827.33 627.96 C 821.72 639.06 815.75 649.99 810.30 661.17 C 809.26 662.61 811.63 663.12 812.47 663.75 C 818.63 666.70 824.51 670.24 830.79 672.95 C 838.05 658.71 845.38 644.51 852.81 630.37 C 858.73 633.70 864.64 637.07 870.70 640.15 C 860.25 661.53 848.87 682.45 838.12 703.68 C 807.11 687.67 776.13 671.62 745.12 655.62 Z" />
<path fill="#ffffff" d=" M 145.94 653.14 C 176.35 636.08 206.40 618.37 236.86 601.41 C 242.70 611.79 248.66 622.10 254.57 632.44 C 260.55 642.55 265.88 653.92 264.69 665.99 C 263.76 678.36 254.75 688.22 245.15 695.19 C 234.81 702.46 223.48 708.81 211.07 711.69 C 201.30 713.90 190.39 712.90 182.08 706.93 C 172.54 700.59 166.90 690.30 161.42 680.58 C 156.34 671.38 150.79 662.45 145.94 653.14 Z" />
<path fill="#0461a6" d=" M 226.57 634.45 C 227.65 633.84 228.77 633.27 229.95 632.87 C 232.31 635.36 233.52 638.69 235.32 641.59 C 238.76 647.69 243.44 654.41 241.79 661.78 C 239.28 670.46 230.74 675.18 223.57 679.64 C 215.17 684.26 206.11 689.99 196.10 688.57 C 190.04 687.16 186.33 681.56 183.40 676.51 C 180.92 672.14 178.35 667.82 176.04 663.36 C 192.89 653.73 209.73 644.09 226.57 634.45 Z" />
<path fill="#ffffff" d=" M 235.45 729.51 C 250.87 712.33 266.45 695.30 281.91 678.16 C 287.36 683.41 293.25 688.18 298.63 693.49 C 299.20 694.70 298.03 695.53 297.37 696.37 C 282.99 712.00 268.83 727.82 254.54 743.52 C 251.19 747.21 248.01 751.77 248.38 757.00 C 248.75 762.00 252.16 766.04 255.60 769.39 C 259.32 772.77 263.80 775.91 268.99 776.20 C 273.91 776.00 278.17 772.93 281.43 769.47 C 296.57 752.62 311.88 735.94 327.00 719.08 C 332.51 724.22 338.29 729.08 343.70 734.32 C 344.09 736.41 341.48 737.79 340.39 739.39 C 326.35 754.67 312.52 770.14 298.54 785.47 C 291.86 792.70 283.05 798.88 272.92 799.46 C 262.13 800.16 252.13 794.58 244.11 787.86 C 235.28 780.36 227.00 770.91 225.06 759.11 C 223.22 748.23 228.41 737.51 235.45 729.51 Z" />
<path fill="#ffffff" d=" M 735.48 679.22 C 748.07 676.08 760.73 681.95 770.45 689.62 C 780.63 697.74 790.13 707.21 796.35 718.77 C 801.29 727.85 802.46 739.09 798.66 748.79 C 795.48 757.14 789.56 764.04 783.42 770.38 C 774.86 779.12 766.28 787.85 757.79 796.67 C 732.75 772.43 707.80 748.10 682.72 723.90 C 689.28 716.41 696.59 709.61 703.43 702.38 C 712.50 692.80 722.14 682.39 735.48 679.22 Z" />
<path fill="#0461a6" d=" M 724.28 711.35 C 728.09 707.51 732.26 703.23 737.86 702.36 C 743.60 701.40 748.95 704.42 753.40 707.70 C 760.12 712.88 766.30 718.83 771.60 725.46 C 775.01 729.91 778.45 735.18 777.69 741.07 C 776.93 746.45 773.01 750.62 769.46 754.44 C 766.01 757.94 762.61 761.49 759.10 764.94 C 744.38 750.44 729.44 736.16 714.63 721.76 C 717.44 717.93 721.11 714.87 724.28 711.35 Z" />
<path fill="#ffffff" d=" M 653.49 740.90 C 659.71 737.75 665.91 734.57 672.15 731.47 C 687.81 762.69 703.51 793.89 718.99 825.20 C 714.01 827.60 709.08 830.12 704.13 832.57 C 680.35 819.58 656.10 807.46 632.53 794.10 C 640.09 809.03 647.54 824.02 655.05 838.98 C 657.35 843.93 660.20 848.63 662.15 853.75 C 655.83 856.60 649.79 860.03 643.48 862.90 C 629.90 835.71 616.23 808.57 602.65 781.39 C 600.72 777.29 598.37 773.38 596.86 769.10 C 602.92 766.28 608.80 763.11 614.85 760.27 C 630.86 769.29 647.03 778.00 663.10 786.90 C 669.42 790.20 675.45 794.06 681.90 797.10 C 672.04 778.57 662.99 759.62 653.49 740.90 Z" />
<path fill="#ffffff" d=" M 385.59 757.16 C 394.09 759.26 402.66 761.11 411.07 763.57 C 413.83 786.42 417.37 809.17 420.22 832.01 C 420.44 834.63 420.85 837.24 421.49 839.81 C 425.34 833.34 429.94 827.37 434.26 821.23 C 444.84 806.52 455.39 791.78 465.97 777.06 C 474.34 778.89 482.59 781.26 490.98 783.00 C 490.66 786.46 489.80 789.83 488.89 793.17 C 481.30 823.72 473.81 854.29 466.19 884.83 C 459.19 883.09 452.14 881.52 445.19 879.61 C 450.45 858.67 455.56 837.69 460.85 816.76 C 449.74 833.24 437.89 849.21 426.41 865.44 C 424.34 868.09 422.80 871.21 420.31 873.50 C 415.29 872.47 410.39 870.94 405.39 869.88 C 402.20 846.92 399.04 823.95 396.16 800.95 C 391.41 821.91 385.79 842.67 380.98 863.62 C 374.08 862.17 367.18 860.60 360.44 858.55 C 369.00 824.80 377.22 790.96 385.59 757.16 Z" />
<path fill="#ffffff" d=" M 535.60 777.85 C 546.98 775.72 559.38 774.85 570.24 779.65 C 579.27 783.65 585.53 792.11 588.94 801.15 C 593.51 813.20 595.19 826.17 595.53 838.99 C 595.71 850.21 593.80 862.36 586.02 870.98 C 578.37 879.48 566.80 882.75 555.84 884.23 C 544.57 885.49 532.17 885.24 522.56 878.44 C 511.70 870.83 506.82 857.62 504.38 845.10 C 502.02 832.29 500.59 818.93 503.51 806.09 C 505.48 797.29 510.72 789.18 518.43 784.39 C 523.62 781.01 529.58 779.10 535.60 777.85 Z" />
<path fill="#0461a6" d=" M 543.96 797.87 C 549.51 797.15 555.85 796.89 560.45 800.64 C 564.32 804.02 566.20 809.06 567.48 813.92 C 569.36 821.80 570.58 829.88 570.84 837.99 C 570.95 844.22 571.25 851.12 567.43 856.44 C 564.17 861.08 558.25 862.50 552.96 863.24 C 547.75 863.83 541.86 863.89 537.54 860.45 C 533.13 856.90 531.28 851.25 529.87 845.98 C 527.83 837.48 526.75 828.74 526.50 820.02 C 526.52 814.39 526.90 808.17 530.73 803.70 C 533.99 799.83 539.20 798.66 543.96 797.87 Z" />
</svg>
